<svg width="29" height="30" viewBox="0 0 29 30" fill="none" xmlns="http://www.w3.org/2000/svg">
<path d="M18.5 28V17.3333C18.5 16.9797 18.3595 16.6406 18.1095 16.3905C17.8594 16.1405 17.5203 16 17.1667 16H11.8333C11.4797 16 11.1406 16.1405 10.8905 16.3905C10.6405 16.6406 10.5 16.9797 10.5 17.3333V28" stroke="white" stroke-width="4" stroke-linecap="round" stroke-linejoin="round"/>
<path d="M2.5 13.3335C2.49991 12.9455 2.58445 12.5623 2.74772 12.2104C2.91099 11.8585 3.14906 11.5465 3.44533 11.2961L12.7787 3.29745C13.26 2.89067 13.8698 2.66748 14.5 2.66748C15.1302 2.66748 15.74 2.89067 16.2213 3.29745L25.5547 11.2961C25.8509 11.5465 26.089 11.8585 26.2523 12.2104C26.4156 12.5623 26.5001 12.9455 26.5 13.3335V25.3335C26.5 26.0407 26.219 26.719 25.719 27.2191C25.2189 27.7192 24.5406 28.0001 23.8333 28.0001H5.16667C4.45942 28.0001 3.78115 27.7192 3.28105 27.2191C2.78095 26.719 2.5 26.0407 2.5 25.3335V13.3335Z" stroke="white" stroke-width="4" stroke-linecap="round" stroke-linejoin="round"/>
</svg>
