<svg width="33" height="32" viewBox="0 0 33 32" fill="none" xmlns="http://www.w3.org/2000/svg">
<path d="M10.7933 21.9415L13.1413 21.2641L27.2786 6.95745C27.3901 6.84318 27.4522 6.68963 27.4515 6.52997C27.4507 6.3703 27.3872 6.21734 27.2746 6.10412L26.428 5.24812C26.3732 5.1919 26.3079 5.14715 26.2357 5.11646C26.1635 5.08578 26.0859 5.06979 26.0075 5.06941C25.929 5.06904 25.8513 5.0843 25.7788 5.1143C25.7063 5.14429 25.6405 5.18843 25.5853 5.24412L11.4853 19.5135L10.7933 21.9415ZM28.104 3.55212L28.9506 4.40945C30.1186 5.59212 30.1293 7.50012 28.972 8.67079L14.404 23.4148L9.38529 24.8601C9.23357 24.9028 9.07494 24.9151 8.91845 24.8965C8.76195 24.8778 8.61067 24.8285 8.47324 24.7513C8.33581 24.6742 8.21491 24.5707 8.11746 24.4469C8.02001 24.323 7.94792 24.1812 7.90529 24.0295C7.8399 23.8094 7.83898 23.5753 7.90263 23.3548L9.36263 18.2348L23.892 3.52945C24.1682 3.25126 24.4971 3.03087 24.8595 2.88112C25.2218 2.73138 25.6104 2.65528 26.0024 2.65726C26.3945 2.65925 26.7822 2.73928 27.1431 2.89269C27.5039 3.0461 27.8305 3.27115 28.104 3.55212ZM12.7453 5.08945C13.4066 5.08945 13.9426 5.63212 13.9426 6.30145C13.9437 6.45968 13.9135 6.61656 13.8539 6.76312C13.7943 6.90969 13.7064 7.04307 13.5952 7.15563C13.484 7.26819 13.3517 7.35773 13.2058 7.41913C13.06 7.48053 12.9035 7.51258 12.7453 7.51345H7.95596C6.63329 7.51345 5.56129 8.59879 5.56129 9.93612V24.4775C5.56129 25.8161 6.63329 26.9015 7.95596 26.9015H22.324C23.6466 26.9015 24.72 25.8161 24.72 24.4775V19.6308C24.72 18.9615 25.256 18.4188 25.9173 18.4188C26.5786 18.4188 27.1146 18.9615 27.1146 19.6321V24.4775C27.1146 27.1548 24.9693 29.3255 22.324 29.3255H7.95596C5.31063 29.3255 3.16663 27.1548 3.16663 24.4775V9.93612C3.16663 7.26012 5.31063 5.08945 7.95596 5.08945H12.7453Z" fill="white"/>
</svg>
