<svg width="33" height="33" viewBox="0 0 33 33" fill="none" xmlns="http://www.w3.org/2000/svg">
<path d="M16.3843 0.961822C16.3323 0.971221 16.2809 0.983965 16.2305 0.999976C15.9526 1.06225 15.7049 1.21896 15.5296 1.44338C15.3544 1.66781 15.2623 1.94607 15.2692 2.23075V3.46151H4.19231C3.21305 3.46151 2.27389 3.85052 1.58145 4.54297C0.88901 5.23541 0.5 6.17456 0.5 7.15382L0.5 23.1538C0.5 25.192 2.15415 26.8461 4.19231 26.8461H15.2692V27.3077L8.57631 30.6541C8.28057 30.7969 8.05368 31.0514 7.94554 31.3615C7.8374 31.6716 7.85688 32.0119 7.99969 32.3077C8.1425 32.6034 8.39694 32.8303 8.70704 32.9384C9.01714 33.0466 9.35749 33.0271 9.65323 32.8843L15.2692 30.0769V30.5384C15.2692 30.8649 15.3989 31.1779 15.6297 31.4087C15.8605 31.6395 16.1736 31.7692 16.5 31.7692C16.8264 31.7692 17.1395 31.6395 17.3703 31.4087C17.6011 31.1779 17.7308 30.8649 17.7308 30.5384V30.0769L23.3468 32.8843C23.6425 33.0271 23.9829 33.0466 24.293 32.9384C24.6031 32.8303 24.8575 32.6034 25.0003 32.3077C25.1431 32.0119 25.1626 31.6716 25.0545 31.3615C24.9463 31.0514 24.7194 30.7969 24.4237 30.6541L17.7308 27.3077V26.8461H28.8077C30.8458 26.8461 32.5 25.192 32.5 23.1538V7.15382C32.5 6.17456 32.111 5.23541 31.4186 4.54297C30.7261 3.85052 29.787 3.46151 28.8077 3.46151H17.7308V2.23075C17.737 2.05573 17.7058 1.8814 17.6392 1.7194C17.5727 1.55741 17.4723 1.41149 17.3449 1.29138C17.2174 1.17126 17.0658 1.07974 16.9002 1.02291C16.7345 0.966075 16.5587 0.94525 16.3843 0.961822ZM2.96154 7.15382H30.0385V23.1538H2.96154V7.15382ZM26.1923 8.38459C25.9166 8.41423 25.659 8.5361 25.4612 8.73044L21.4231 12.7698L18.6157 9.95998C18.4812 9.82202 18.3163 9.71755 18.1341 9.65497C17.9519 9.59239 17.7576 9.57345 17.5668 9.59967C17.3759 9.62589 17.1939 9.69654 17.0353 9.80593C16.8768 9.91533 16.7461 10.0604 16.6538 10.2295L12.9997 16.6147L11.4994 12.8449C11.4265 12.6503 11.3056 12.4772 11.1478 12.342C10.99 12.2067 10.8005 12.1136 10.597 12.0713C10.3935 12.029 10.1827 12.039 9.98405 12.1002C9.78545 12.1615 9.60558 12.272 9.46123 12.4215L5.76892 16.1138C5.65255 16.2301 5.56023 16.3682 5.49721 16.5202C5.4342 16.6721 5.40174 16.835 5.40169 16.9995C5.40163 17.1641 5.43398 17.327 5.49688 17.479C5.55979 17.631 5.65202 17.7691 5.76831 17.8855C5.8846 18.0019 6.02267 18.0942 6.17464 18.1572C6.32662 18.2202 6.48951 18.2527 6.65403 18.2528C6.81854 18.2528 6.98146 18.2205 7.13348 18.1576C7.28549 18.0947 7.42363 18.0024 7.54 17.8861L9.88585 15.5403L11.6557 19.9243C11.7392 20.1442 11.884 20.3355 12.0729 20.4756C12.2618 20.6158 12.4869 20.6989 12.7215 20.715C12.9562 20.7312 13.1905 20.6798 13.3969 20.567C13.6032 20.4541 13.7729 20.2844 13.8858 20.0781L18.0015 12.8855L20.5394 15.4246C20.6542 15.5433 20.7917 15.6378 20.9437 15.7022C21.0957 15.7667 21.2592 15.8 21.4243 15.8C21.5894 15.8 21.7529 15.7667 21.9049 15.7022C22.057 15.6378 22.1945 15.5433 22.3092 15.4246L27.2323 10.5015C27.4267 10.3215 27.5579 10.0836 27.6063 9.8231C27.6546 9.56261 27.6177 9.29346 27.5008 9.05566C27.384 8.81786 27.1936 8.62411 26.9578 8.50321C26.7221 8.3823 26.4536 8.3407 26.1923 8.38459Z" fill="white"/>
</svg>
